<svg xmlns="http://www.w3.org/2000/svg" viewBox="0 0 378.55 378.5"><defs><style>.cls-1{fill:#fff;}.cls-2{fill:none;}.cls-2,.cls-4{stroke:#000;stroke-width:3px;}.cls-2,.cls-4,.cls-5{stroke-miterlimit:10;}.cls-3{fill:#37b749;}.cls-4{fill:#af2b2b;}.cls-5{fill:#1d1d1b;stroke:#1d1d1b;}</style></defs><title>Ziffernblatt3</title><g id="Ziffernblatt"><circle class="cls-1" cx="189.34" cy="189.29" r="189.21"/><g id="Sriche"><line class="cls-2" x1="189.21" y1="189.21" x2="189.21" y2="378.42"/><line class="cls-2" x1="189.21" y1="189.21" x2="208.99" y2="377.38"/><line class="cls-2" x1="189.21" y1="189.21" x2="228.55" y2="374.28"/><line class="cls-2" x1="189.21" y1="189.21" x2="247.68" y2="369.16"/><line class="cls-2" x1="189.21" y1="189.21" x2="266.17" y2="362.06"/><line class="cls-2" x1="189.21" y1="189.21" x2="283.82" y2="353.07"/><line class="cls-2" x1="189.21" y1="189.21" x2="300.43" y2="342.28"/><line class="cls-2" x1="189.21" y1="189.21" x2="315.82" y2="329.82"/><line class="cls-2" x1="189.21" y1="189.21" x2="329.82" y2="315.81"/><line class="cls-2" x1="189.21" y1="189.21" x2="342.29" y2="300.42"/><line class="cls-2" x1="189.21" y1="189.21" x2="353.08" y2="283.81"/><line class="cls-2" x1="189.21" y1="189.21" x2="362.07" y2="266.17"/><line class="cls-2" x1="189.21" y1="189.21" x2="369.16" y2="247.68"/><line class="cls-2" x1="189.21" y1="189.21" x2="374.29" y2="228.55"/><line class="cls-2" x1="189.21" y1="189.21" x2="377.39" y2="208.99"/><line class="cls-2" x1="189.21" y1="189.21" x2="378.43" y2="189.21"/><line class="cls-2" x1="189.21" y1="189.21" x2="377.39" y2="169.43"/><line class="cls-2" x1="189.21" y1="189.21" x2="374.29" y2="149.87"/><line class="cls-2" x1="189.21" y1="189.21" x2="369.16" y2="130.74"/><line class="cls-2" x1="189.21" y1="189.21" x2="362.07" y2="112.25"/><line class="cls-2" x1="189.21" y1="189.21" x2="353.08" y2="94.6"/><line class="cls-2" x1="189.21" y1="189.21" x2="342.29" y2="77.99"/><line class="cls-2" x1="189.21" y1="189.21" x2="329.82" y2="62.6"/><line class="cls-2" x1="189.21" y1="189.21" x2="315.82" y2="48.6"/><line class="cls-2" x1="189.21" y1="189.21" x2="300.43" y2="36.14"/><line class="cls-2" x1="189.21" y1="189.21" x2="283.82" y2="25.35"/><line class="cls-2" x1="189.21" y1="189.21" x2="266.17" y2="16.36"/><line class="cls-2" x1="189.21" y1="189.21" x2="247.68" y2="9.26"/><line class="cls-2" x1="189.21" y1="189.21" x2="228.55" y2="4.13"/><line class="cls-2" x1="189.21" y1="189.21" x2="208.99" y2="1.04"/><line class="cls-2" x1="189.21" y1="189.21" x2="189.21"/><line class="cls-2" x1="189.21" y1="189.21" x2="169.43" y2="1.04"/><line class="cls-2" x1="189.21" y1="189.21" x2="149.87" y2="4.13"/><line class="cls-2" x1="189.21" y1="189.21" x2="130.74" y2="9.26"/><line class="cls-2" x1="189.21" y1="189.21" x2="112.25" y2="16.36"/><line class="cls-2" x1="189.21" y1="189.21" x2="94.61" y2="25.35"/><line class="cls-2" x1="189.21" y1="189.21" x2="78" y2="36.14"/><line class="cls-2" x1="189.21" y1="189.21" x2="62.6" y2="48.6"/><line class="cls-2" x1="189.21" y1="189.21" x2="48.6" y2="62.6"/><line class="cls-2" x1="189.21" y1="189.21" x2="36.14" y2="77.99"/><line class="cls-2" x1="189.21" y1="189.21" x2="25.35" y2="94.6"/><line class="cls-2" x1="189.21" y1="189.21" x2="16.36" y2="112.25"/><line class="cls-2" x1="189.21" y1="189.21" x2="9.26" y2="130.74"/><line class="cls-2" x1="189.21" y1="189.21" x2="4.13" y2="149.87"/><line class="cls-2" x1="189.21" y1="189.21" x2="1.04" y2="169.43"/><line class="cls-2" x1="189.21" y1="189.21" y2="189.21"/><line class="cls-2" x1="189.21" y1="189.21" x2="1.04" y2="208.99"/><line class="cls-2" x1="189.21" y1="189.21" x2="4.13" y2="228.55"/><line class="cls-2" x1="189.21" y1="189.21" x2="9.26" y2="247.68"/><line class="cls-2" x1="189.21" y1="189.21" x2="16.36" y2="266.17"/><line class="cls-2" x1="189.21" y1="189.21" x2="25.35" y2="283.81"/><line class="cls-2" x1="189.21" y1="189.21" x2="36.14" y2="300.42"/><line class="cls-2" x1="189.21" y1="189.21" x2="48.6" y2="315.81"/><line class="cls-2" x1="189.21" y1="189.21" x2="62.6" y2="329.82"/><line class="cls-2" x1="189.21" y1="189.21" x2="78" y2="342.28"/><line class="cls-2" x1="189.21" y1="189.21" x2="94.61" y2="353.07"/><line class="cls-2" x1="189.21" y1="189.21" x2="112.25" y2="362.06"/><line class="cls-2" x1="189.21" y1="189.21" x2="130.74" y2="369.16"/><line class="cls-2" x1="189.21" y1="189.21" x2="149.87" y2="374.28"/><line class="cls-2" x1="189.21" y1="189.21" x2="169.43" y2="377.38"/></g><circle class="cls-3" cx="189.34" cy="189.29" r="166.58"/><path class="cls-1" d="M444,273.79a180,180,0,1,0-180,179.95A179.85,179.85,0,0,0,444,273.79Z" transform="translate(-74.87 -84.58)"/><line class="cls-4" x1="189.21" y1="189.21" x2="189.21" y2="369.16"/><line class="cls-4" x1="189.21" y1="189.21" x2="279.19" y2="345.05"/><line class="cls-4" x1="189.21" y1="189.21" x2="345.06" y2="279.18"/><line class="cls-4" x1="189.21" y1="189.21" x2="369.16" y2="189.21"/><line class="cls-4" x1="189.21" y1="189.21" x2="345.06" y2="99.23"/><line class="cls-4" x1="189.21" y1="189.21" x2="279.19" y2="33.37"/><line class="cls-4" x1="189.21" y1="189.21" x2="189.21" y2="9.26"/><line class="cls-4" x1="189.21" y1="189.21" x2="99.24" y2="33.37"/><line class="cls-4" x1="189.21" y1="189.21" x2="33.37" y2="99.23"/><line class="cls-4" x1="189.21" y1="189.21" x2="9.26" y2="189.21"/><line class="cls-4" x1="189.21" y1="189.21" x2="33.37" y2="279.18"/><line class="cls-4" x1="189.21" y1="189.21" x2="99.24" y2="345.05"/><circle class="cls-1" cx="189.34" cy="189.29" r="170.83"/></g><g id="Zahlen"><path id="_11.1" data-name="11.1" class="cls-5" d="M189.82,135.31h-2.09a3.14,3.14,0,0,0-1.44.79l-6.82,8.48a.4.4,0,0,0,.3.66h4.41a.4.4,0,0,1,.4.4v26.77l.4.4h6.9a.4.4,0,0,0,.4-.4V135.71a.4.4,0,0,0-.4-.4Z" transform="translate(-74.87 -84.58)"/><path id="_11.2" data-name="11.2" class="cls-5" d="M213.07,135.31H211a3.14,3.14,0,0,0-1.44.79l-6.82,8.48a.4.4,0,0,0,.3.66h4.41a.4.4,0,0,1,.4.4v26.77l.4.4h6.9a.4.4,0,0,0,.4-.4V135.71a.4.4,0,0,0-.4-.4Z" transform="translate(-74.87 -84.58)"/><path id="_12.2" data-name="12.2" class="cls-5" d="M267.07,143a.83.83,0,0,1-.83-.83V136.7a.83.83,0,0,1,.83-.83H294.5V115.75a2.18,2.18,0,0,0-2.18-2.18H260a2.18,2.18,0,0,0-2.18,2.18v5.75h28.52a.83.83,0,0,1,.83.83v5.43a.83.83,0,0,1-.83.83H257.83v20.3a2.18,2.18,0,0,0,2.18,2.18h32.3a2.18,2.18,0,0,0,2.18-2.18V143Z" transform="translate(-74.87 -84.58)"/><path id="_2" data-name="2" class="cls-5" d="M376.65,216.12a.83.83,0,0,1-.83-.83v-5.43a.83.83,0,0,1,.83-.83h27.43V188.91a2.18,2.18,0,0,0-2.18-2.18H369.6a2.18,2.18,0,0,0-2.18,2.18v5.75h28.52a.83.83,0,0,1,.83.83v5.43a.83.83,0,0,1-.83.83H367.42V222a2.18,2.18,0,0,0,2.18,2.18h32.3a2.18,2.18,0,0,0,2.18-2.18v-5.92Z" transform="translate(-74.87 -84.58)"/><path id="_12.1" data-name="12.1" class="cls-5" d="M250.51,113.56h-2.09a3.14,3.14,0,0,0-1.44.79l-6.82,8.48a.4.4,0,0,0,.3.66h4.41a.4.4,0,0,1,.4.4v26.77l.4.4h6.9a.4.4,0,0,0,.4-.4V114a.4.4,0,0,0-.4-.4Z" transform="translate(-74.87 -84.58)"/><path id="_1" data-name="1" class="cls-5" d="M340.34,135.08h-2.09a3.14,3.14,0,0,0-1.44.79L330,144.36a.4.4,0,0,0,.3.66h4.41a.4.4,0,0,1,.4.4v26.77l.4.4h6.9a.4.4,0,0,0,.4-.4V135.48a.4.4,0,0,0-.4-.4Z" transform="translate(-74.87 -84.58)"/><path id="_10.1" data-name="10.1" class="cls-5" d="M136.82,186.31h-2.09a3.14,3.14,0,0,0-1.44.79l-6.82,8.48a.4.4,0,0,0,.3.66h4.41a.4.4,0,0,1,.4.4v26.77l.4.4h6.9a.4.4,0,0,0,.4-.4V186.71a.4.4,0,0,0-.4-.4Z" transform="translate(-74.87 -84.58)"/><path id="_8" data-name="8" class="cls-5" d="M162,321.92H128.88a2.21,2.21,0,0,0-2.21,2.21v33.16a2.21,2.21,0,0,0,2.21,2.21H162a2.21,2.21,0,0,0,2.21-2.21V324.13A2.21,2.21,0,0,0,162,321.92Zm-6.16,28.72a1.36,1.36,0,0,1-1.36,1.36H136.36a1.36,1.36,0,0,1-1.36-1.36V346a1.36,1.36,0,0,1,1.36-1.36h18.15a1.36,1.36,0,0,1,1.36,1.36Zm0-14.08a1.36,1.36,0,0,1-1.36,1.36H136.36a1.36,1.36,0,0,1-1.36-1.36v-4.6a1.36,1.36,0,0,1,1.36-1.36h18.15a1.36,1.36,0,0,1,1.36,1.36Z" transform="translate(-74.87 -84.58)"/><path id="_9" data-name="9" class="cls-5" d="M141.79,254.92H108.63a2.21,2.21,0,0,0-2.21,2.21v20.12h26.93a1.59,1.59,0,0,1,1.59,1.59v3.69a1.59,1.59,0,0,1-1.59,1.59H106.42v6.16a2.21,2.21,0,0,0,2.21,2.21h33.16a2.21,2.21,0,0,0,2.21-2.21V257.13A2.21,2.21,0,0,0,141.79,254.92Zm-6.85,14.7a1.26,1.26,0,0,1-1.26,1.26H116.51a1.26,1.26,0,0,1-1.26-1.26v-5.29a1.26,1.26,0,0,1,1.26-1.26h17.16a1.26,1.26,0,0,1,1.26,1.26Z" transform="translate(-74.87 -84.58)"/><path id="_10" data-name="10" class="cls-5" d="M177.74,186.31H146.83a2.14,2.14,0,0,0-2.14,2.14v33.22a2.14,2.14,0,0,0,2.14,2.14h30.91a2.14,2.14,0,0,0,2.14-2.14V188.45A2.14,2.14,0,0,0,177.74,186.31Zm-6,27.06a2,2,0,0,1-2,2H154.82a2,2,0,0,1-2-2V196.76a2,2,0,0,1,2-2h14.91a2,2,0,0,1,2,2Z" transform="translate(-74.87 -84.58)"/><path id="_3" data-name="3" class="cls-5" d="M422.38,256.5H390.5A2.5,2.5,0,0,0,388,259v4.94h29.56v6.31l-2.28,0h-11.1a.68.68,0,0,0-.68.68v6a.68.68,0,0,0,.68.68h8.22l5.16,0v6.31H388v5.31a2.5,2.5,0,0,0,2.5,2.5h31.88a2.5,2.5,0,0,0,2.5-2.5V259A2.5,2.5,0,0,0,422.38,256.5Z" transform="translate(-74.87 -84.58)"/><path id="_6" data-name="6" class="cls-5" d="M254.16,412.94a.91.91,0,0,1-.91-.91v-4.65a.91.91,0,0,1,.91-.91h27.75v-6.39a2.08,2.08,0,0,0-2.08-2.08H246.58a2.08,2.08,0,0,0-2.08,2.08v33.26a2.08,2.08,0,0,0,2.08,2.08h33.26a2.08,2.08,0,0,0,2.08-2.08v-20.4Zm19.15,14.24a.7.7,0,0,1-.7.7H253.95a.7.7,0,0,1-.7-.7v-6.42a.7.7,0,0,1,.7-.7h18.67a.7.7,0,0,1,.7.7Z" transform="translate(-74.87 -84.58)"/><path id="_5" data-name="5" class="cls-5" d="M322.33,383.64h27.75v-6.39a2.08,2.08,0,0,0-2.08-2.08H314.74a2.08,2.08,0,0,0-2.08,2.08v20h28.12a.7.7,0,0,1,.7.7v6.42a.7.7,0,0,1-.7.7H322.11l-.13,0h-9.32v5.49a2.08,2.08,0,0,0,2.08,2.08H348a2.08,2.08,0,0,0,2.08-2.08V390.1H322.33a.91.91,0,0,1-.91-.91v-4.65A.91.91,0,0,1,322.33,383.64Z" transform="translate(-74.87 -84.58)"/><path id="_7" data-name="7" class="cls-5" d="M214.36,376.5h-32.3a2.18,2.18,0,0,0-2.18,2.18v5.75h29.28v2.38l-28.07,24.73h11.09l24.36-21.46v-11.4A2.18,2.18,0,0,0,214.36,376.5Z" transform="translate(-74.87 -84.58)"/><path id="_4" data-name="4" class="cls-5" d="M404.24,347.56h-2.61V323.81H390.27l-26,21.35v9.34h28.61v5.13a1.05,1.05,0,0,0,1.05,1.05h4.83a1.05,1.05,0,0,0,1.05-1.05V354.5h4.38a1.05,1.05,0,0,0,1.05-1.05v-4.83A1.05,1.05,0,0,0,404.24,347.56Zm-30.67-1.14,18.94-15.56a.64.64,0,0,1,1.05.5v15.56a.64.64,0,0,1-.64.64H374A.64.64,0,0,1,373.57,346.42Z" transform="translate(-74.87 -84.58)"/></g><g id="Richtungsloch"><circle id="Richtungsloch-2" data-name="Richtungsloch" cx="189.34" cy="189.29" r="7.37"/></g></svg>